<svg enable-background="new 0 0 150 31" viewBox="0 0 150 31" xmlns="http://www.w3.org/2000/svg"><g fill="#fff"><path d="m15.58 30.67v-15.05h-14.93v.52c2.95 5.84 7.93 10.97 14.29 14.54 0-.01.64-.01.64-.01zm7.48-7.98v-7.08h-7.02v.24c1.38 2.75 3.73 5.16 6.72 6.83zm-7.48-7.64v-15.05h-14.93v.52c2.95 5.84 7.93 10.97 14.29 14.54h.64zm7.48-7.97v-7.08h-7.02v.24c1.38 2.75 3.73 5.16 6.72 6.84z" opacity=".25"/><path d="m28.8 30.4 1.19-3.35v-17.45l-1.19-3.35v-.24h8.56v.24l-1.2 3.35v17.45l1.19 3.35v.24h-8.55zm32.01 0v.24h-8.32v-.24l1.19-3.35v-6.78c0-3.51-1.43-4.71-3.41-4.71-1.19 0-2.46.52-3.25 1.32v10.18l1.19 3.35v.24h-8.31v-.25l1.19-3.35v-10.74l-1.19-3.15v-.24l6.89-1.72.24.12v4.15c1.15-2.67 3.69-4.27 6.34-4.27 4.36 0 6.26 3.51 6.26 8.22v7.62zm20.44-24.91-3.09 3.15h-.16c-1.19-2.32-2.38-3.39-3.88-3.39-2.14 0-3.53 1.96-3.53 6.11v2.32l5.63-2.48.24.16-.79 4.19-5.07-.2v11.69l1.66 3.35v.24h-8.8v-.23l1.19-3.35v-11.5h-3.01l-.16-.24c.95-1.64 1.9-2.71 3.33-3.63.83-5.59 4.6-8.31 9.98-8.31 2.38.01 4.64.76 6.46 2.12zm11.09 6.47-1.62 4.75h-.24c-.63-.52-1.39-.76-2.18-.76-1.15 0-2.46.52-3.37 1.28v9.82l1.66 3.35v.24h-8.79v-.24l1.19-3.35v-10.74l-1.19-3.15v-.24l6.89-1.72.24.12v4.39c1.31-2.75 3.33-4.39 5.39-4.39.79 0 1.58.24 2.02.64zm-1.22 9.38c0-5.99 4.24-9.94 10.62-9.94 6.18 0 10.02 3.75 10.02 9.66 0 5.99-4.24 9.94-10.62 9.94-6.18 0-10.02-3.71-10.02-9.66zm14.57 2.64c0-5.35-2.73-10.7-5.55-10.7-1.86 0-2.93 1.92-2.93 5.15 0 5.35 2.73 10.7 5.59 10.7 1.86-.01 2.89-1.92 2.89-5.15zm28.29 6.42v.24h-8.32v-.24l1.19-3.35v-6.78c0-3.51-1.43-4.71-3.41-4.71-1.19 0-2.46.52-3.25 1.32v10.18l1.19 3.35v.24h-8.32v-.25l1.19-3.35v-10.74l-1.19-3.15v-.24l6.89-1.72.24.12v4.15c1.15-2.67 3.69-4.27 6.34-4.27 4.36 0 6.26 3.51 6.26 8.22v7.62zm15.01-4.51.24.16c-.83 3.27-3.13 4.95-6.02 4.95-3.88 0-5.94-2.55-5.94-7.26v-8.18h-3.01l-.16-.24c1.55-3.31 4.79-5.99 8.87-7.14l.24.16v5.35l5.9-2.47.24.16-.79 4.19-5.35-.2v7.1c0 3.11 1.03 4.43 3.05 4.43.99-.01 1.86-.37 2.73-1.01z" opacity=".5"/></g></svg>