<svg enable-background="new 0 0 159 26" viewBox="0 0 159 26" xmlns="http://www.w3.org/2000/svg"><path d="m.11 12.79h4l-.13 3.37h.03c.61-2.24 2.08-3.58 4.45-3.58 2.5 0 4.11 1.29 4.4 3.4h.03c.53-2.11 1.95-3.4 4.45-3.4 2.84 0 4.45 1.79 4.45 4.84v8.37h-4v-7.45c0-1.53-.79-2.45-2.16-2.45-1.58 0-2.68 1.21-2.68 3.61v6.29h-4v-7.45c0-1.53-.79-2.45-2.16-2.45-1.55 0-2.66 1.24-2.66 3.68v6.21h-4v-12.99zm36.56 7.26h-9.24c.18 2.13 1.26 3.05 3.05 3.05 1.55 0 2.55-.55 2.66-1.82h3.53c-.08 2.98-2.55 4.72-6.27 4.72-4.32 0-7-2.45-7-6.58 0-4.29 2.68-6.84 7.08-6.84 3.63 0 6.19 2.08 6.19 6.34zm-3.53-2.34c0-1.47-1-2.24-2.66-2.24-1.68 0-2.63.74-2.95 2.45h5.61zm5.05 1.47c0-3.97 2.47-6.61 6.26-6.61 2.11 0 3.47.79 4.05 2.13h.03v-7.15h4v18.24h-4c.03-.26.08-1.4.16-2.79h-.05c-.5 1.84-1.97 3-4.34 3-3.76 0-6.11-2.74-6.11-6.82zm10.35.21v-.63c0-1.87-1.32-3.13-3.26-3.13-1.87 0-3.11 1.42-3.11 3.58 0 2.21 1.21 3.74 3.05 3.74 2-0 3.32-1.42 3.32-3.56zm6.16-11.16h4v3.18h-4zm0 4.56h4v13h-4zm5.95 9.26c0-2.13 1.53-3.68 4.97-3.68h4.24v-.87c0-1.58-.89-2.21-2.74-2.21-1.5 0-2.37.63-2.37 1.68 0 .08 0 .29.03.55h-3.69c-.03-.21-.05-.5-.05-.76 0-2.63 2.32-4.18 6.26-4.18 4.13 0 6.55 1.84 6.55 5.32v7.9h-4c.08-.66.18-1.84.18-2.63h-.03c-.38 1.83-1.85 2.83-4.22 2.83-3.03 0-5.13-1.32-5.13-3.95zm9.21-1.26v-.26h-3.87c-1.08 0-1.74.5-1.74 1.24 0 1 .87 1.53 2.32 1.53 2.08-.01 3.29-.93 3.29-2.51zm6.97-4.9h-1.92v-3.11h1.92v-1.26c0-3 2.18-4.53 5.13-4.53 1.32 0 2.45.29 2.79.42v2.95c-.34-.11-1.05-.32-1.97-.32-1.32 0-1.95.61-1.95 1.76v.97h4.13v3.11h-4.13v9.9h-4zm9.79-7.66h4v3.18h-4zm0 4.56h4v13h-4zm6.11 0h4l-.16 3.45h.05c.66-2.47 2.18-3.66 5.13-3.66 3.13 0 5.16 1.71 5.16 5.08v8.13h-4v-7.24c0-1.84-1.05-2.66-2.82-2.66-2.11 0-3.37 1.24-3.37 3.71v6.19h-4v-13zm66.16-11.15h-9.12v24.16h9.12zm-9.03 1.78-8.45-3.42-9.05 22.4 8.45 3.42zm-11.38 4.13-6.88-5.98-15.85 18.23 6.88 5.98z" fill="#fff" opacity=".55"/></svg>